<svg xmlns="http://www.w3.org/2000/svg" viewBox="0 0 1024 1024" width="1024" height="1024">
  <defs>
    <linearGradient id="bgGrad" x1="0%" y1="0%" x2="100%" y2="100%">
      <stop offset="0%" stop-color="#2a1520"/>
      <stop offset="100%" stop-color="#1a0c14"/>
    </linearGradient>
    <linearGradient id="heartGrad" x1="50%" y1="0%" x2="50%" y2="100%" gradientUnits="userSpaceOnUse">
      <stop offset="0%" stop-color="#ff6887"/>
      <stop offset="100%" stop-color="#ff375f"/>
    </linearGradient>
    <linearGradient id="arrowGrad" x1="50%" y1="0%" x2="50%" y2="100%" gradientUnits="userSpaceOnUse">
      <stop offset="0%" stop-color="rgba(255,255,255,0.95)"/>
      <stop offset="100%" stop-color="rgba(230,230,230,0.9)"/>
    </linearGradient>
  </defs>

  <!-- Tinted background -->
  <rect width="1024" height="1024" fill="url(#bgGrad)"/>

  <!-- Heart + arrow -->
  <g transform="translate(512, 500) scale(6.5)">
    <g transform="translate(-48.53, -46)">
      <path d="M48.5297 91.7313C49.4366 91.7313 50.6838 91.1575 51.5942 90.6027C78.924 72.8892 97.0594 52.4996 97.0594 31.746C97.0594 14.7019 85.3274 2.59035 69.9666 2.59035C60.6407 2.59035 52.8149 7.86118 48.5297 15.9863C44.3132 7.89554 36.4187 2.59035 27.0928 2.59035C11.732 2.59035 0 14.7019 0 31.746C0 52.4996 18.1354 72.8892 45.4841 90.6027C46.3756 91.1575 47.6228 91.7313 48.5297 91.7313Z" fill="url(#heartGrad)"/>
      <path d="M48.5297 28.9779C47.7652 28.9779 47.1073 29.2647 46.2895 29.9794L31.3227 44.1867C30.6339 44.8257 30.1358 45.4717 30.1358 46.5091C30.1358 48.1875 31.3212 49.3231 32.9687 49.3231C33.7641 49.3231 34.5784 48.9675 35.1058 48.4401L39.2366 44.1942L48.5297 34.6985L57.8227 44.1942L61.9535 48.4401C62.5153 48.9675 63.2609 49.3231 64.0907 49.3231C65.6695 49.3231 66.9236 48.1875 66.9236 46.5091C66.9236 45.4717 66.4255 44.8257 65.7367 44.1867L50.7545 29.9794C49.9521 29.2647 49.2942 28.9779 48.5297 28.9779Z" fill="url(#arrowGrad)"/>
      <path d="M48.5297 70.8512C50.1772 70.8512 51.5877 69.5094 51.5877 67.8962L51.5877 46.7666L51.2819 35.6776C51.1943 34.2173 50.0243 32.9598 48.5297 32.9598C47.0351 32.9598 45.8651 34.2173 45.7775 35.6776L45.506 46.7666L45.506 67.8962C45.506 69.5094 46.8822 70.8512 48.5297 70.8512Z" fill="url(#arrowGrad)"/>
    </g>
  </g>
</svg>
